<svg width="19" height="15" viewBox="0 0 19 15" fill="none" xmlns="http://www.w3.org/2000/svg">
<path d="M10.2929 2.70711L11 2V2L10.2929 2.70711ZM10.2929 1.29289L11 2L11 2L10.2929 1.29289ZM14.9858 7.4L15.6929 6.69289C16.0834 7.08342 16.0834 7.71658 15.6929 8.10711L14.9858 7.4ZM10.2929 12.0929L11 12.8L11 12.8L10.2929 12.0929ZM10.2929 13.5071L11 12.8L11 12.8L10.2929 13.5071ZM11.7071 13.5071L11 12.8L11 12.8L11.7071 13.5071ZM17.1071 8.10711L16.4 7.4L16.4 7.4L17.1071 8.10711ZM17.1071 6.69289L16.4 7.4L16.4 7.4L17.1071 6.69289ZM11.7071 1.29289L11 2L11 2L11.7071 1.29289ZM16.4 5.4C17.5046 5.4 18.4 6.29543 18.4 7.4H16.4V5.4ZM2.00002 5.4H16.4V7.4H2.00002V5.4ZM2.47955e-05 7.4C2.47955e-05 6.29543 0.895454 5.4 2.00002 5.4V7.4H2.47955e-05ZM2.00002 9.4C0.895454 9.4 2.47955e-05 8.50457 2.47955e-05 7.4H2.00002V9.4ZM16.4 9.4H2.00002V7.4H16.4V9.4ZM18.4 7.4C18.4 8.50457 17.5046 9.4 16.4 9.4V7.4H18.4ZM9.58581 3.41421C8.80476 2.63317 8.80476 1.36683 9.58581 0.585786L11 2V2L9.58581 3.41421ZM14.2787 8.10711L9.58581 3.41421L11 2L15.6929 6.69289L14.2787 8.10711ZM9.58581 11.3858L14.2787 6.69289L15.6929 8.10711L11 12.8L9.58581 11.3858ZM9.58581 14.2142C8.80476 13.4332 8.80476 12.1668 9.58581 11.3858L11 12.8V12.8L9.58581 14.2142ZM12.4142 14.2142C11.6332 14.9953 10.3669 14.9953 9.58581 14.2142L11 12.8H11L12.4142 14.2142ZM17.8142 8.81421L12.4142 14.2142L11 12.8L16.4 7.4L17.8142 8.81421ZM17.8142 5.98579C18.5953 6.76683 18.5953 8.03317 17.8142 8.81421L16.4 7.4V7.4L17.8142 5.98579ZM12.4142 0.585786L17.8142 5.98579L16.4 7.4L11 2L12.4142 0.585786ZM9.58581 0.585787C10.3669 -0.195262 11.6332 -0.195262 12.4142 0.585787L11 2H11L9.58581 0.585787Z" fill="#29ABE1"/>
</svg>
