<svg width="20" height="16" viewBox="0 0 20 16" fill="none" xmlns="http://www.w3.org/2000/svg">
<path d="M8.90709 3.30711L8.19999 2.6V2.6L8.90709 3.30711ZM8.90709 1.89289L8.19999 2.6L8.19999 2.6L8.90709 1.89289ZM4.2142 8L3.50709 7.29289C3.11657 7.68342 3.11657 8.31658 3.50709 8.70711L4.2142 8ZM8.90709 12.6929L8.19999 13.4L8.19999 13.4L8.90709 12.6929ZM8.90709 14.1071L8.19999 13.4L8.19999 13.4L8.90709 14.1071ZM7.49288 14.1071L8.19999 13.4L8.19999 13.4L7.49288 14.1071ZM2.09288 8.70711L2.79999 8L2.79999 8L2.09288 8.70711ZM2.09288 7.29289L2.79999 8L2.79999 8L2.09288 7.29289ZM7.49288 1.89289L8.19999 2.6L8.19999 2.6L7.49288 1.89289ZM2.79999 6C1.69542 6 0.799988 6.89543 0.799988 8H2.79999V6ZM17.2 6H2.79999V8H17.2V6ZM19.2 8C19.2 6.89543 18.3046 6 17.2 6V8H19.2ZM17.2 10C18.3046 10 19.2 9.10457 19.2 8H17.2V10ZM2.79999 10H17.2V8H2.79999V10ZM0.799988 8C0.799988 9.10457 1.69542 10 2.79999 10V8H0.799988ZM9.6142 4.01421C10.3952 3.23316 10.3952 1.96683 9.6142 1.18578L8.19999 2.6V2.6L9.6142 4.01421ZM4.92131 8.70711L9.6142 4.01421L8.19999 2.6L3.50709 7.29289L4.92131 8.70711ZM9.6142 11.9858L4.92131 7.29289L3.50709 8.70711L8.19999 13.4L9.6142 11.9858ZM9.6142 14.8142C10.3953 14.0332 10.3953 12.7668 9.6142 11.9858L8.19999 13.4V13.4L9.6142 14.8142ZM6.78577 14.8142C7.56682 15.5953 8.83315 15.5953 9.6142 14.8142L8.19999 13.4H8.19999L6.78577 14.8142ZM1.38577 9.41421L6.78577 14.8142L8.19999 13.4L2.79999 8L1.38577 9.41421ZM1.38577 6.58578C0.604726 7.36683 0.604726 8.63316 1.38577 9.41421L2.79999 8V8L1.38577 6.58578ZM6.78577 1.18578L1.38577 6.58579L2.79999 8L8.19999 2.6L6.78577 1.18578ZM9.6142 1.18579C8.83315 0.404736 7.56682 0.404736 6.78577 1.18579L8.19999 2.6H8.19999L9.6142 1.18579Z" fill="#8BC53E"/>
</svg>
