<svg width="56" height="57" viewBox="0 0 56 57" fill="none" xmlns="http://www.w3.org/2000/svg">
<g filter="url(#filter0_d)">
<path fill-rule="evenodd" clip-rule="evenodd" d="M28 49C40.7025 49 51 38.7025 51 26C51 13.2975 40.7025 3 28 3C15.2975 3 5 13.2975 5 26C5 38.7025 15.2975 49 28 49Z" fill="#F7911E"/>
<path d="M28 49.8537C41.174 49.8537 51.8537 39.174 51.8537 26C51.8537 12.826 41.174 2.14634 28 2.14634C14.826 2.14634 4.14634 12.826 4.14634 26C4.14634 39.174 14.826 49.8537 28 49.8537Z" stroke="white" stroke-width="1.70732"/>
</g>
<path fill-rule="evenodd" clip-rule="evenodd" d="M36.8939 24.0137H37.5889C38.4774 24.0137 39.1948 24.7483 39.1948 25.6358V29.107C39.1948 29.9944 38.4764 30.7217 37.5889 30.7217H36.8939V31.7057C36.8939 33.2819 35.6026 34.5456 34.0265 34.5456H32.6814V36.0497C32.6814 36.9372 31.9619 37.6567 31.0745 37.6567H25.5461C24.6586 37.6567 23.9318 36.9372 23.9318 36.0497V34.545H22.5941C21.0179 34.545 19.7517 33.2819 19.7517 31.7057V30.7212H19.0312C18.1437 30.7212 17.4185 29.9934 17.4185 29.1064V25.6353C17.4185 24.7478 18.1437 24.0137 19.0312 24.0137H19.7517V23.037C19.7517 21.4609 21.0179 20.1894 22.5941 20.1894H27.2694V17.8468C26.6538 17.4904 26.2442 16.8247 26.2442 16.0609C26.2442 14.923 27.1729 14 28.3118 14C29.4492 14 30.3732 14.9224 30.3732 16.0609C30.3732 16.8247 29.9595 17.4904 29.3438 17.8468V20.1894H34.0265C35.6021 20.1894 36.8939 21.4609 36.8939 23.037V24.0137ZM23.9392 23.2103C22.8967 23.2103 22.051 24.055 22.051 25.0979C22.051 26.1409 22.8967 26.9856 23.9392 26.9856C24.9816 26.9856 25.8263 26.1409 25.8263 25.0979C25.8263 24.055 24.9816 23.2103 23.9392 23.2103ZM30.8814 31.9859H25.7392C24.8872 31.9859 24.1964 31.2993 24.1964 30.4463C24.1964 29.5943 24.8872 28.9077 25.7392 28.9077H30.8819C31.7339 28.9077 32.4247 29.5943 32.4247 30.4463C32.4247 31.2983 31.7334 31.9859 30.8814 31.9859ZM30.7938 25.0979C30.7938 26.1409 31.639 26.9856 32.6814 26.9856C33.7244 26.9856 34.5696 26.1409 34.5696 25.0979C34.5696 24.055 33.7244 23.2103 32.6814 23.2103C31.639 23.2103 30.7938 24.055 30.7938 25.0979Z" fill="white"/>
<path fill-rule="evenodd" clip-rule="evenodd" d="M44.5 52C48.0899 52 51 49.0899 51 45.5C51 41.9101 48.0899 39 44.5 39C40.9101 39 38 41.9101 38 45.5C38 49.0899 40.9101 52 44.5 52Z" fill="#F5A623" stroke="white"/>
<defs>
<filter id="filter0_d" x="0.292725" y="0.292686" width="55.4146" height="55.4146" filterUnits="userSpaceOnUse" color-interpolation-filters="sRGB">
<feFlood flood-opacity="0" result="BackgroundImageFix"/>
<feColorMatrix in="SourceAlpha" type="matrix" values="0 0 0 0 0 0 0 0 0 0 0 0 0 0 0 0 0 0 127 0"/>
<feOffset dy="2"/>
<feGaussianBlur stdDeviation="1.5"/>
<feColorMatrix type="matrix" values="0 0 0 0 0 0 0 0 0 0 0 0 0 0 0 0 0 0 0.0847769 0"/>
<feBlend mode="normal" in2="BackgroundImageFix" result="effect1_dropShadow"/>
<feBlend mode="normal" in="SourceGraphic" in2="effect1_dropShadow" result="shape"/>
</filter>
</defs>
</svg>
