<svg width="24" height="24" viewBox="0 0 24 24" fill="none" xmlns="http://www.w3.org/2000/svg">
<path d="M12 24C18.6274 24 24 18.6274 24 12C24 5.37258 18.6274 0 12 0C5.37258 0 0 5.37258 0 12C0 18.6274 5.37258 24 12 24Z" fill="#F8633B"/>
<path fill-rule="evenodd" clip-rule="evenodd" d="M17.3333 6.66666H15.22L14 5.33333H10L8.78 6.66666H6.66667C5.93333 6.66666 5.33333 7.26666 5.33333 7.99999V16C5.33333 16.7333 5.93333 17.3333 6.66667 17.3333H17.3333C18.0667 17.3333 18.6667 16.7333 18.6667 16V7.99999C18.6667 7.26666 18.0667 6.66666 17.3333 6.66666ZM17.3333 16H6.66667V7.99999H9.36667L10.5867 6.66666H13.4133L14.6333 7.99999H17.3333V16ZM12 8.66666C10.16 8.66666 8.66667 10.16 8.66667 12C8.66667 13.84 10.16 15.3333 12 15.3333C13.84 15.3333 15.3333 13.84 15.3333 12C15.3333 10.16 13.84 8.66666 12 8.66666ZM12 14C10.9 14 10 13.1 10 12C10 10.9 10.9 9.99999 12 9.99999C13.1 9.99999 14 10.9 14 12C14 13.1 13.1 14 12 14Z" fill="white"/>
</svg>
