<svg width="142" height="69" viewBox="0 0 142 69" fill="none" xmlns="http://www.w3.org/2000/svg">
<path fill-rule="evenodd" clip-rule="evenodd" d="M39.4047 29.4833C39.7618 29.4833 40.0515 29.1903 40.0515 28.8284V27.5495C40.0515 27.1875 39.7618 26.8945 39.4047 26.8945C39.0476 26.8945 38.7579 27.1875 38.7579 27.5495V28.8284C38.7579 29.1903 39.0476 29.4833 39.4047 29.4833Z" fill="#361D1E"/>
<path fill-rule="evenodd" clip-rule="evenodd" d="M38.6662 30.7778H40.1432C40.4497 30.7778 40.6984 30.4882 40.6984 30.1305C40.6984 29.7732 40.4497 29.4833 40.1432 29.4833H38.6662C38.3597 29.4833 38.1111 29.7732 38.1111 30.1305C38.1111 30.4882 38.3597 30.7778 38.6662 30.7778Z" fill="#361D1E"/>
<path fill-rule="evenodd" clip-rule="evenodd" d="M28.4087 29.4833C28.7658 29.4833 29.0555 29.1903 29.0555 28.8284V27.5495C29.0555 27.1875 28.7658 26.8945 28.4087 26.8945C28.0513 26.8945 27.7619 27.1875 27.7619 27.5495V28.8284C27.7619 29.1903 28.0513 29.4833 28.4087 29.4833Z" fill="#361D1E"/>
<path fill-rule="evenodd" clip-rule="evenodd" d="M27.6703 30.7778H29.1471C29.4539 30.7778 29.7024 30.4882 29.7024 30.1305C29.7024 29.7732 29.4539 29.4833 29.1471 29.4833H27.6703C27.3635 29.4833 27.1151 29.7732 27.1151 30.1305C27.1151 30.4882 27.3635 30.7778 27.6703 30.7778Z" fill="#361D1E"/>
<path fill-rule="evenodd" clip-rule="evenodd" d="M33.9067 30.7778C34.4783 30.7778 35.0158 30.5858 35.3808 30.2512C35.591 30.0587 35.5666 29.7661 35.326 29.5978C35.0857 29.4294 34.7204 29.4492 34.5102 29.6417C34.3648 29.775 34.1446 29.8515 33.9067 29.8515C33.6688 29.8515 33.4487 29.775 33.3032 29.6417C33.093 29.4492 32.7277 29.4294 32.4874 29.5978C32.2468 29.7661 32.2224 30.0587 32.4326 30.2512C32.7976 30.5858 33.3348 30.7778 33.9067 30.7778Z" fill="#361D1E"/>
<path fill-rule="evenodd" clip-rule="evenodd" d="M25.3032 37.0064C22.6478 35.5876 21.3015 33.1466 21.3015 29.7508C21.3015 28.3066 21.4593 26.9413 21.7677 25.6686C19.5633 22.215 19.8892 18.6513 20.2891 16.8136C20.4673 15.9939 21.1535 15.3842 21.9966 15.296C22.3228 15.2619 22.6504 15.2447 22.9706 15.2447C25.8319 15.2447 27.6716 16.5859 28.3638 17.1996C30.0928 16.345 32.0287 15.8808 33.9889 15.8808C35.9488 15.8808 37.8847 16.345 39.614 17.1996C40.3059 16.5859 42.1453 15.2447 45.0069 15.2447C45.3271 15.2447 45.655 15.2619 45.9812 15.296C46.824 15.3842 47.5105 15.9939 47.6886 16.8136C48.0883 18.6513 48.4144 22.215 46.2101 25.6686C46.5185 26.9413 46.6763 28.3066 46.6763 29.7506C46.6763 33.1463 45.3297 35.5876 42.6743 37.0064C41.9715 37.3818 41.182 37.688 40.2895 37.928C40.447 38.8771 40.9198 39.8222 41.4173 40.8148C41.9893 41.9564 42.6244 43.2283 42.835 44.674C43.6179 43.9365 43.9079 42.7305 44.3308 40.968L44.3312 40.9662C44.6923 39.4617 45.1014 37.7569 46.0064 36.1263C47.0644 34.2203 48.5969 32.7915 50.6917 31.7582L50.7077 31.7504C51.7035 31.2699 52.9388 31.6946 53.4282 32.6835L53.4359 32.6996C53.9179 33.6945 53.4924 34.9266 52.5013 35.4154C51.5368 35.8914 50.7806 36.4774 50.1893 37.2077C49.9983 37.4437 49.6514 37.4803 49.4148 37.2896C49.1781 37.0986 49.1414 36.7523 49.3327 36.5163C50.0261 35.6597 50.9028 34.9773 52.0133 34.4297C52.4729 34.2028 52.6679 33.6306 52.4405 33.1707C52.2138 32.7124 51.6401 32.5174 51.1796 32.7442C49.2926 33.675 47.9158 34.9558 46.97 36.6595C46.1375 38.1597 45.7468 39.7878 45.4022 41.2241C44.889 43.3634 44.4771 45.0798 42.8995 45.9874C42.8881 46.2134 42.8643 46.4385 42.8307 46.6618C42.7541 47.1728 42.6198 47.684 42.4236 48.2004C43.6394 47.8487 44.5921 47.2501 45.3176 46.3855C46.4129 45.0804 46.83 43.3425 47.2331 41.662C47.4852 40.6115 47.746 39.5252 48.166 38.5145C48.2825 38.2338 48.6046 38.101 48.8858 38.2172C49.1669 38.3338 49.3 38.6554 49.1836 38.9361C48.7968 39.866 48.5576 40.8629 48.3046 41.9183L48.3045 41.9187L48.3045 41.9188C47.8716 43.7229 47.424 45.5883 46.1619 47.092C45.1136 48.341 43.6925 49.1197 41.8266 49.4691C41.4195 50.1991 40.8969 50.9411 40.2557 51.7001C39.6745 52.3883 38.8182 52.783 37.9065 52.783H30.0713C29.1599 52.783 28.3036 52.3883 27.7221 51.7001C26.7051 50.4961 25.9997 49.3603 25.5659 48.2279C25.4575 47.944 25.5998 47.6261 25.8838 47.5179C26.1681 47.4093 26.4865 47.5514 26.595 47.8352C26.9785 48.8364 27.6409 49.8981 28.5644 50.991C28.9359 51.4309 29.4852 51.6832 30.0713 51.6832H30.4595C29.0099 48.5704 29.4299 44.7479 29.4502 44.5723C29.4849 44.2707 29.7583 44.0545 30.0604 44.0895C30.3628 44.1244 30.5794 44.397 30.5444 44.6986C30.5384 44.7533 30.0994 48.8081 31.6939 51.6832H33.4381V44.6356C33.4381 44.332 33.6848 44.0857 33.9889 44.0857C34.293 44.0857 34.5397 44.332 34.5397 44.6356V51.6832H36.2839C37.8852 48.7972 37.4383 44.7407 37.4334 44.6989C37.3984 44.397 37.615 44.1244 37.9174 44.0895C38.2192 44.0545 38.4926 44.2707 38.5276 44.5723C38.5482 44.7479 38.9679 48.5704 37.5183 51.6832H37.9065C38.4928 51.6832 39.0419 51.4309 39.4137 50.991C40.8088 49.3393 41.5836 47.8046 41.7652 46.3259C41.7991 46.0492 41.8129 45.766 41.8048 45.4893C41.7595 43.956 41.0848 42.6094 40.4321 41.3068L40.4308 41.3043C39.9052 40.2547 39.4038 39.2537 39.2129 38.1754C38.2975 38.3535 37.2854 38.4744 36.1623 38.54C34.7173 38.6222 33.2614 38.6242 31.8161 38.54C30.693 38.4744 29.6806 38.3535 28.7649 38.1754C28.5738 39.2545 28.0724 40.2564 27.5462 41.3068C26.8477 42.7013 26.1256 44.143 26.1741 45.8161C26.1827 46.1197 25.9435 46.3729 25.6394 46.3815C25.3356 46.3906 25.0817 46.1515 25.0728 45.8479C25.0166 43.8987 25.8368 42.2608 26.5605 40.8155L26.5608 40.8148C27.058 39.8222 27.5307 38.8771 27.6882 37.928C26.7958 37.688 26.0063 37.3818 25.3032 37.0064ZM25.4463 19.2078C24.9727 18.946 24.2761 18.6671 23.3842 18.5966C23.3068 19.39 23.3111 20.3863 23.5607 21.452C24.0343 20.7271 24.5848 20.053 25.2007 19.4441C25.2816 19.3642 25.3631 19.2851 25.4463 19.2078ZM44.4171 21.452C44.1136 20.9872 43.78 20.5456 43.4176 20.1277C43.1488 19.8178 42.8643 19.5214 42.5656 19.2402C42.5599 19.2349 42.5542 19.2294 42.5485 19.224C42.5429 19.2186 42.5372 19.2131 42.5315 19.2078C43.0051 18.9463 43.7016 18.6671 44.5933 18.5969C44.6707 19.3897 44.6664 20.3866 44.4171 21.452ZM45.8664 16.3897C45.5781 16.3596 45.2892 16.3444 45.0072 16.3444C42.8645 16.3444 41.3837 17.2116 40.6519 17.7707C40.9953 17.9835 41.326 18.2126 41.6442 18.4569C42.3218 18.0124 43.4592 17.4803 45.0224 17.4803L45.0832 17.4806C45.3538 17.4831 45.5824 17.6813 45.6226 17.9485C45.8004 19.1296 45.8587 20.9056 45.1682 22.7706C45.3133 23.0644 45.4479 23.3654 45.5724 23.6736C45.5968 23.747 45.6629 23.9163 45.7142 24.0475L45.7142 24.0476L45.7143 24.0478C45.7441 24.1242 45.7689 24.1877 45.7775 24.2117C47.2196 21.3712 46.9422 18.5637 46.612 17.047C46.5351 16.6924 46.2353 16.4284 45.8664 16.3897ZM41.3329 19.6182C44.2909 22.0852 45.5747 25.9951 45.5747 29.7506C45.5747 32.7511 44.4561 34.8071 42.1548 36.0366C40.0575 37.157 37.5662 37.4059 35.2256 37.4815C35.2067 37.4821 32.7711 37.4821 32.7522 37.4815C30.4107 37.4053 27.9229 37.1584 25.823 36.0366C23.5217 34.8071 22.4031 32.7511 22.4031 29.7506C22.4031 26.27 23.4491 22.7528 25.9592 20.2454C28.0595 18.1476 31.0272 16.9805 33.9889 16.9805C36.6772 16.9805 39.3145 17.9348 41.3329 19.6182ZM22.1114 16.3897C21.7425 16.4284 21.4427 16.6924 21.3655 17.047C21.0356 18.5637 20.7582 21.3712 22.2003 24.212C22.2244 24.1441 22.3592 23.7878 22.404 23.6773C22.5288 23.368 22.6639 23.0655 22.8096 22.7706C22.1191 20.9056 22.1774 19.1296 22.3552 17.9485C22.3954 17.6813 22.624 17.4831 22.8945 17.4806L22.9554 17.4803C24.5183 17.4803 25.656 18.0124 26.3336 18.4569C26.6509 18.2135 26.9805 17.9849 27.3228 17.7724C26.5861 17.2137 25.098 16.3444 22.9706 16.3444C22.6886 16.3444 22.3997 16.3596 22.1114 16.3897Z" fill="#361D1E"/>
<path d="M83.852 38.64C82.8627 38.64 81.9667 38.4253 81.164 37.996C80.3707 37.5573 79.7453 36.9553 79.288 36.19C78.84 35.4247 78.616 34.5613 78.616 33.6C78.616 32.6387 78.8447 31.7753 79.302 31.01C79.7593 30.2447 80.3847 29.6473 81.178 29.218C81.9807 28.7793 82.8767 28.56 83.866 28.56C84.6687 28.56 85.4013 28.7 86.064 28.98C86.7267 29.26 87.2867 29.666 87.744 30.198L86.568 31.304C85.8587 30.5387 84.986 30.156 83.95 30.156C83.278 30.156 82.676 30.3053 82.144 30.604C81.612 30.8933 81.1967 31.2993 80.898 31.822C80.5993 32.3447 80.45 32.9373 80.45 33.6C80.45 34.2627 80.5993 34.8553 80.898 35.378C81.1967 35.9007 81.612 36.3113 82.144 36.61C82.676 36.8993 83.278 37.044 83.95 37.044C84.986 37.044 85.8587 36.6567 86.568 35.882L87.744 37.002C87.2867 37.534 86.722 37.94 86.05 38.22C85.3873 38.5 84.6547 38.64 83.852 38.64ZM92.1075 30.94C93.2088 30.94 94.0488 31.206 94.6275 31.738C95.2155 32.2607 95.5095 33.054 95.5095 34.118V38.5H93.8575V37.59C93.6428 37.9167 93.3348 38.1687 92.9335 38.346C92.5415 38.514 92.0655 38.598 91.5055 38.598C90.9455 38.598 90.4555 38.5047 90.0355 38.318C89.6155 38.122 89.2888 37.856 89.0555 37.52C88.8315 37.1747 88.7195 36.7873 88.7195 36.358C88.7195 35.686 88.9668 35.1493 89.4615 34.748C89.9655 34.3373 90.7542 34.132 91.8275 34.132H93.7595V34.02C93.7595 33.4973 93.6008 33.096 93.2835 32.816C92.9755 32.536 92.5135 32.396 91.8975 32.396C91.4775 32.396 91.0622 32.4613 90.6515 32.592C90.2502 32.7227 89.9095 32.9047 89.6295 33.138L88.9435 31.864C89.3355 31.5653 89.8068 31.3367 90.3575 31.178C90.9082 31.0193 91.4915 30.94 92.1075 30.94ZM91.8695 37.324C92.3082 37.324 92.6955 37.226 93.0315 37.03C93.3768 36.8247 93.6195 36.5353 93.7595 36.162V35.294H91.9535C90.9455 35.294 90.4415 35.6253 90.4415 36.288C90.4415 36.6053 90.5675 36.8573 90.8195 37.044C91.0715 37.2307 91.4215 37.324 91.8695 37.324ZM102.249 38.094C102.044 38.262 101.792 38.388 101.493 38.472C101.204 38.556 100.896 38.598 100.569 38.598C99.7481 38.598 99.1134 38.3833 98.6654 37.954C98.2174 37.5247 97.9934 36.8993 97.9934 36.078V32.48H96.7614V31.08H97.9934V29.372H99.7434V31.08H101.745V32.48H99.7434V36.036C99.7434 36.4 99.8321 36.68 100.009 36.876C100.187 37.0627 100.443 37.156 100.779 37.156C101.171 37.156 101.498 37.0533 101.759 36.848L102.249 38.094ZM105.999 38.598C105.392 38.598 104.8 38.5187 104.221 38.36C103.642 38.2013 103.18 38.0007 102.835 37.758L103.507 36.428C103.843 36.652 104.244 36.834 104.711 36.974C105.187 37.1047 105.654 37.17 106.111 37.17C107.156 37.17 107.679 36.8947 107.679 36.344C107.679 36.0827 107.544 35.9007 107.273 35.798C107.012 35.6953 106.587 35.5973 105.999 35.504C105.383 35.4107 104.879 35.3033 104.487 35.182C104.104 35.0607 103.768 34.8507 103.479 34.552C103.199 34.244 103.059 33.8193 103.059 33.278C103.059 32.5687 103.353 32.004 103.941 31.584C104.538 31.1547 105.341 30.94 106.349 30.94C106.862 30.94 107.376 31.0007 107.889 31.122C108.402 31.234 108.822 31.388 109.149 31.584L108.477 32.914C107.842 32.5407 107.128 32.354 106.335 32.354C105.822 32.354 105.43 32.4333 105.159 32.592C104.898 32.7413 104.767 32.942 104.767 33.194C104.767 33.474 104.907 33.6747 105.187 33.796C105.476 33.908 105.92 34.0153 106.517 34.118C107.114 34.2113 107.604 34.3187 107.987 34.44C108.37 34.5613 108.696 34.7667 108.967 35.056C109.247 35.3453 109.387 35.756 109.387 36.288C109.387 36.988 109.084 37.548 108.477 37.968C107.87 38.388 107.044 38.598 105.999 38.598Z" fill="#361D1E"/>
</svg>
