<svg width="142" height="69" viewBox="0 0 142 69" fill="none" xmlns="http://www.w3.org/2000/svg">
<path d="M26.1958 38.5254C26.5199 38.675 26.9155 38.5544 27.0796 38.2522C27.2443 37.9507 27.114 37.5808 26.7905 37.4258C26.6946 37.3796 24.4298 36.2596 23.8364 32.9502C23.7881 32.6782 23.5506 32.4697 23.2549 32.4401C22.9526 32.4087 22.6801 32.5674 22.5696 32.8229C21.1342 36.1624 23.8409 40.0005 23.9567 40.1623C24.0836 40.3402 24.294 40.4362 24.507 40.4362C24.6327 40.4362 24.7604 40.4023 24.8735 40.3327C25.1771 40.1445 25.2597 39.7629 25.058 39.4799C25.0415 39.4565 23.9216 37.8633 23.5763 35.9871C24.6645 37.7919 26.1105 38.4854 26.1958 38.5254Z" fill="black"/>
<path d="M28.6146 40.6735C28.9753 40.606 29.2099 40.2766 29.138 39.9385C29.0653 39.6004 28.718 39.3804 28.3533 39.4485C27.0155 39.6992 24.4842 41.0648 24.4842 44.4361C24.4842 46.8823 25.0308 48.5793 25.4528 49.523C23.9935 49.7887 23.1509 50.6493 23.1509 51.9362C23.1509 53.3849 24.5529 54.4362 26.4841 54.4362H27.1507C28.2559 54.4362 28.9359 53.6593 29.0092 53.5712C29.2359 53.2993 29.1845 52.9062 28.8939 52.6936C28.6039 52.4805 28.1847 52.5299 27.9587 52.8012C27.9553 52.8056 27.6167 53.1862 27.1508 53.1862H26.4841C25.4902 53.1862 24.4842 52.7568 24.4842 51.9362C24.4842 51.6268 24.4842 50.6861 26.4841 50.6861C26.7288 50.6861 26.9527 50.5593 27.0694 50.3573C27.186 50.1555 27.174 49.9092 27.0407 49.7173C27.028 49.6992 25.8174 47.9186 25.8174 44.436C25.8175 41.2666 28.5039 40.696 28.6146 40.6735Z" fill="black"/>
<path d="M46.849 49.5228C47.271 48.5791 47.8177 46.8822 47.8177 44.4358C47.8177 41.0645 45.2865 39.6988 43.9486 39.4482C43.5873 39.3813 43.2366 39.5995 43.1639 39.9382C43.0919 40.2764 43.3266 40.6058 43.6873 40.6732C43.8019 40.6951 46.4845 41.2351 46.4845 44.4358C46.4845 47.9184 45.2738 49.699 45.2632 49.7141C45.1272 49.906 45.1139 50.1528 45.2298 50.356C45.3458 50.5591 45.5718 50.686 45.8178 50.686C47.8177 50.686 47.8177 51.6267 47.8177 51.9361C47.8177 52.7567 46.8117 53.1861 45.8178 53.1861H45.1512C44.6912 53.1861 44.3525 52.8118 44.3392 52.7967C44.1119 52.5298 43.6966 52.4824 43.4079 52.6936C43.1172 52.9061 43.0659 53.2993 43.2926 53.5711C43.366 53.6593 44.0459 54.4362 45.1512 54.4362H45.8178C47.7497 54.4362 49.1509 53.3849 49.1509 51.9361C49.1509 50.6492 48.3083 49.7885 46.849 49.5228Z" fill="black"/>
<path d="M40.6602 49.2855L41.8419 42.1934C41.901 41.8391 41.6618 41.5044 41.3076 41.4452C40.9521 41.3867 40.6186 41.6253 40.5601 41.9789L39.3504 49.2362H39.251C38.8915 49.2362 38.601 49.5274 38.601 49.8862C38.601 50.2449 38.8915 50.5361 39.251 50.5361H39.9009C41.851 50.5361 41.851 51.5144 41.851 51.8362C41.851 52.6896 40.8701 53.1362 39.9009 53.1362H39.251C38.1758 53.1362 37.3009 52.2613 37.3009 51.1862V42.0861C37.3009 41.7274 37.0104 41.4362 36.6509 41.4362C36.2915 41.4362 36.001 41.7274 36.001 42.0861V51.1862C36.001 52.2613 35.126 53.1362 34.0509 53.1362H33.4009C32.4318 53.1362 31.4509 52.6897 31.4509 51.8362C31.4509 51.5144 31.4509 50.5361 33.4009 50.5361H34.0509C34.4104 50.5361 34.7009 50.2449 34.7009 49.8862C34.7009 49.5274 34.4104 49.2362 34.0509 49.2362H33.9514L32.7418 41.9789C32.684 41.6253 32.3492 41.3867 31.9943 41.4452C31.64 41.5044 31.4009 41.8391 31.4601 42.1934L32.6418 49.2855C31.0675 49.5033 30.1509 50.4224 30.1509 51.8362C30.1509 53.3429 31.5179 54.4362 33.401 54.4362H34.051C35.1131 54.4362 36.0576 53.924 36.651 53.1342C37.2443 53.924 38.1888 54.4362 39.2509 54.4362H39.9009C41.7846 54.4362 43.1509 53.3429 43.1509 51.8362C43.1509 50.4224 42.2344 49.5033 40.6602 49.2855Z" fill="black"/>
<path fill-rule="evenodd" clip-rule="evenodd" d="M45.5356 16.4362C47.6939 16.4362 51.0542 19.061 52.449 21.8381C52.8692 22.673 53.1509 23.8017 53.1509 24.6467C53.1509 26.388 51.7274 27.8046 49.9778 27.8046C48.3606 27.8046 47.6795 26.7815 47.0782 25.8781L47.077 25.8764L44.3729 21.8394C44.1781 21.5488 44.2568 21.1566 44.5487 20.9633C44.8407 20.7688 45.2347 20.8478 45.4289 21.1383L48.1356 25.1791C48.7308 26.074 49.0837 26.5414 49.9778 26.5414C51.0275 26.5414 51.8817 25.6913 51.8817 24.6467C51.8817 23.9905 51.6482 23.0677 51.3143 22.4027C50.0634 19.9136 47.0408 17.6993 45.5355 17.6993C44.9936 17.6993 43.3829 18.9536 42.0394 20.2534C44.4237 23.0122 45.5355 27.6302 45.5355 32.2256C45.5355 38.057 42.9615 40.4362 36.6509 40.4362C30.3402 40.4362 27.7662 38.057 27.7662 32.2256C27.7662 27.6309 28.8781 23.0122 31.2623 20.2534C29.9188 18.9536 28.3076 17.6993 27.7662 17.6993C26.2609 17.6993 23.2383 19.9136 21.9881 22.4027C21.6536 23.0677 21.4201 23.9905 21.4201 24.6467C21.4201 25.6913 22.2743 26.5414 23.324 26.5414C24.187 26.5414 24.5525 26.069 25.1231 25.2328L25.1288 25.2245C25.1999 25.1205 25.271 25.0166 25.344 24.9139L27.8729 21.1383C28.0671 20.8477 28.46 20.7688 28.7531 20.9633C29.0451 21.1566 29.1238 21.5488 28.9289 21.8394L26.3905 25.6288C26.33 25.7143 26.2761 25.7929 26.2235 25.8696C26.2065 25.8943 26.1897 25.9189 26.1728 25.9434C25.6067 26.7727 24.901 27.8047 23.324 27.8047C21.5744 27.8047 20.1509 26.388 20.1509 24.6467C20.1509 23.8017 20.4327 22.673 20.8528 21.8381C22.2477 19.061 25.608 16.4362 27.7663 16.4362C28.9918 16.4362 31.1006 18.3271 32.1598 19.3579C33.3839 18.3139 34.874 17.6993 36.6509 17.6993C38.4278 17.6993 39.918 18.3139 41.1422 19.3578C42.2013 18.3271 44.3101 16.4362 45.5356 16.4362ZM36.6509 39.173C42.273 39.173 44.2663 37.3554 44.2663 32.2256C44.2663 25.6237 41.9113 18.9625 36.6509 18.9625C31.3906 18.9625 29.0356 25.6237 29.0356 32.2256C29.0356 37.3554 31.0289 39.173 36.6509 39.173Z" fill="black"/>
<path fill-rule="evenodd" clip-rule="evenodd" d="M39.2223 35.2361C39.3972 35.2338 39.8266 35.1612 39.9365 34.9614C40.0997 34.6661 40.4867 34.551 40.8023 34.7028C41.118 34.8546 41.242 35.2164 41.0794 35.511C40.5825 36.4098 39.3598 36.4362 39.2223 36.4362C38.224 36.4362 37.2585 35.904 36.651 35.1426C36.0435 35.904 35.078 36.4362 34.0797 36.4362C33.9435 36.4362 32.7343 36.4104 32.2265 35.5175C32.0594 35.2248 32.1789 34.8617 32.4926 34.7063C32.8063 34.551 33.1952 34.662 33.3617 34.9548C33.4793 35.1611 33.8997 35.2338 34.0842 35.2361C34.8331 35.2361 35.6109 34.6379 35.8912 33.9503C34.8344 33.7271 34.0797 33.0582 34.0797 32.2361C34.0797 31.227 35.2092 30.4362 36.651 30.4362C38.0928 30.4362 39.2223 31.227 39.2223 32.2361C39.2223 33.0582 38.4676 33.7272 37.4108 33.9503C37.6917 34.6379 38.4696 35.2361 39.2223 35.2361ZM35.3653 32.2362C35.3653 32.475 35.8783 32.8362 36.651 32.8362C37.4359 32.8362 37.9367 32.481 37.9367 32.2362C37.9367 31.9915 37.4359 31.6362 36.651 31.6362C35.8783 31.6362 35.3653 31.9974 35.3653 32.2362Z" fill="black"/>
<path d="M39.1509 27.4362C39.7023 27.4362 40.1509 26.9875 40.1509 26.4362C40.1509 25.8848 39.7023 25.4362 39.1509 25.4362C38.5996 25.4362 38.1509 25.8848 38.1509 26.4362C38.1509 26.9875 38.5996 27.4362 39.1509 27.4362Z" fill="black"/>
<path d="M33.1509 27.4362C33.7023 27.4362 34.1509 26.9875 34.1509 26.4362C34.1509 25.8848 33.7023 25.4362 33.1509 25.4362C32.5996 25.4362 32.1509 25.8848 32.1509 26.4362C32.1509 26.9875 32.5996 27.4362 33.1509 27.4362Z" fill="black"/>
<path d="M79.316 28.7H83.6C84.6453 28.7 85.574 28.9053 86.386 29.316C87.198 29.7173 87.828 30.2913 88.276 31.038C88.724 31.7753 88.948 32.6293 88.948 33.6C88.948 34.5707 88.724 35.4293 88.276 36.176C87.828 36.9133 87.198 37.4873 86.386 37.898C85.574 38.2993 84.6453 38.5 83.6 38.5H79.316V28.7ZM83.516 36.96C84.2347 36.96 84.8647 36.8247 85.406 36.554C85.9567 36.274 86.3767 35.882 86.666 35.378C86.9647 34.8647 87.114 34.272 87.114 33.6C87.114 32.928 86.9647 32.34 86.666 31.836C86.3767 31.3227 85.9567 30.9307 85.406 30.66C84.8647 30.38 84.2347 30.24 83.516 30.24H81.136V36.96H83.516ZM94.0744 38.598C93.3184 38.598 92.6371 38.4347 92.0304 38.108C91.4237 37.7813 90.9477 37.3287 90.6024 36.75C90.2664 36.162 90.0984 35.4993 90.0984 34.762C90.0984 34.0247 90.2664 33.3667 90.6024 32.788C90.9477 32.2093 91.4237 31.7567 92.0304 31.43C92.6371 31.1033 93.3184 30.94 94.0744 30.94C94.8397 30.94 95.5257 31.1033 96.1324 31.43C96.7391 31.7567 97.2104 32.2093 97.5464 32.788C97.8917 33.3667 98.0644 34.0247 98.0644 34.762C98.0644 35.4993 97.8917 36.162 97.5464 36.75C97.2104 37.3287 96.7391 37.7813 96.1324 38.108C95.5257 38.4347 94.8397 38.598 94.0744 38.598ZM94.0744 37.1C94.7184 37.1 95.2504 36.8853 95.6704 36.456C96.0904 36.0267 96.3004 35.462 96.3004 34.762C96.3004 34.062 96.0904 33.4973 95.6704 33.068C95.2504 32.6387 94.7184 32.424 94.0744 32.424C93.4304 32.424 92.8984 32.6387 92.4784 33.068C92.0677 33.4973 91.8624 34.062 91.8624 34.762C91.8624 35.462 92.0677 36.0267 92.4784 36.456C92.8984 36.8853 93.4304 37.1 94.0744 37.1ZM107.158 31.024V37.366C107.158 39.998 105.814 41.314 103.126 41.314C102.407 41.314 101.726 41.2207 101.082 41.034C100.438 40.8567 99.9058 40.5953 99.4858 40.25L100.27 38.934C100.597 39.2047 101.007 39.4193 101.502 39.578C102.006 39.746 102.515 39.83 103.028 39.83C103.849 39.83 104.451 39.6433 104.834 39.27C105.217 38.8967 105.408 38.3273 105.408 37.562V37.17C105.109 37.4967 104.745 37.744 104.316 37.912C103.887 38.08 103.415 38.164 102.902 38.164C102.193 38.164 101.549 38.0147 100.97 37.716C100.401 37.408 99.9478 36.9787 99.6118 36.428C99.2852 35.8773 99.1218 35.2473 99.1218 34.538C99.1218 33.8287 99.2852 33.2033 99.6118 32.662C99.9478 32.1113 100.401 31.6867 100.97 31.388C101.549 31.0893 102.193 30.94 102.902 30.94C103.443 30.94 103.933 31.0287 104.372 31.206C104.82 31.3833 105.193 31.654 105.492 32.018V31.024H107.158ZM103.168 36.68C103.831 36.68 104.372 36.484 104.792 36.092C105.221 35.6907 105.436 35.1727 105.436 34.538C105.436 33.9127 105.221 33.404 104.792 33.012C104.372 32.62 103.831 32.424 103.168 32.424C102.496 32.424 101.945 32.62 101.516 33.012C101.096 33.404 100.886 33.9127 100.886 34.538C100.886 35.1727 101.096 35.6907 101.516 36.092C101.945 36.484 102.496 36.68 103.168 36.68ZM111.769 38.598C111.162 38.598 110.569 38.5187 109.991 38.36C109.412 38.2013 108.95 38.0007 108.605 37.758L109.277 36.428C109.613 36.652 110.014 36.834 110.481 36.974C110.957 37.1047 111.423 37.17 111.881 37.17C112.926 37.17 113.449 36.8947 113.449 36.344C113.449 36.0827 113.313 35.9007 113.043 35.798C112.781 35.6953 112.357 35.5973 111.769 35.504C111.153 35.4107 110.649 35.3033 110.257 35.182C109.874 35.0607 109.538 34.8507 109.249 34.552C108.969 34.244 108.829 33.8193 108.829 33.278C108.829 32.5687 109.123 32.004 109.711 31.584C110.308 31.1547 111.111 30.94 112.119 30.94C112.632 30.94 113.145 31.0007 113.659 31.122C114.172 31.234 114.592 31.388 114.919 31.584L114.247 32.914C113.612 32.5407 112.898 32.354 112.105 32.354C111.591 32.354 111.199 32.4333 110.929 32.592C110.667 32.7413 110.537 32.942 110.537 33.194C110.537 33.474 110.677 33.6747 110.957 33.796C111.246 33.908 111.689 34.0153 112.287 34.118C112.884 34.2113 113.374 34.3187 113.757 34.44C114.139 34.5613 114.466 34.7667 114.737 35.056C115.017 35.3453 115.157 35.756 115.157 36.288C115.157 36.988 114.853 37.548 114.247 37.968C113.64 38.388 112.814 38.598 111.769 38.598Z" fill="black"/>
</svg>
