<svg width="21" height="21" viewBox="0 0 21 21" fill="none" xmlns="http://www.w3.org/2000/svg">
<path fill-rule="evenodd" clip-rule="evenodd" d="M18.8814 2.23251H16.6483V1.0132C16.6483 0.453603 16.1874 0 15.6188 0H15.4555C14.887 0 14.4264 0.453603 14.4264 1.0132V2.23251H6.54728V1.0132C6.54728 0.453603 6.08646 0 5.51814 0H5.35473C4.78624 0 4.3256 0.453603 4.3256 1.0132V2.23251H2.11844C0.950513 2.23251 0 3.16782 0 4.31781V18.9147C0 20.064 0.950513 21 2.11844 21H18.8816C20.0493 21 21 20.0642 21 18.9147V4.31781C20.9998 3.16782 20.0491 2.23251 18.8814 2.23251ZM18.605 18.6426H2.39483V7.27986H18.605V18.6426ZM7.63526 15.2838L7.97312 13.3668L6.51971 12.0055C6.3207 11.82 6.25013 11.5422 6.33587 11.2898C6.42162 11.0375 6.64956 10.8527 6.92496 10.814L8.938 10.529L9.84378 8.78814C9.96781 8.5505 10.2224 8.4 10.4997 8.4C10.7776 8.4 11.0324 8.5505 11.1553 8.78814L12.062 10.529L14.075 10.8141C14.3499 10.8529 14.5789 11.0376 14.6645 11.2899C14.7497 11.5424 14.679 11.8198 14.4803 12.0057L13.0276 13.367L13.3651 15.2839C13.4115 15.546 13.2986 15.8101 13.0738 15.9665C12.9463 16.0547 12.7951 16.1 12.6435 16.1C12.5278 16.1 12.4108 16.0734 12.3041 16.0205L10.4999 15.1206L8.69577 16.0203C8.45 16.1433 8.15131 16.1224 7.92637 15.9663C7.70177 15.8099 7.58921 15.5458 7.63526 15.2838Z" fill="black"/>
</svg>
