<svg width="30" height="26" viewBox="0 0 30 26" fill="none" xmlns="http://www.w3.org/2000/svg">
<path fill-rule="evenodd" clip-rule="evenodd" d="M25.9634 3.70919H23.4006L21.5451 0H8.12561L6.27189 3.71101L3.71278 3.71557C1.67257 3.71922 0.0117243 5.38182 0.00996262 7.42294L0 22.2542C0 24.2999 1.66351 25.9643 3.70919 25.9643H25.9634C28.009 25.9643 29.6726 24.3008 29.6726 22.2551V7.41832C29.6725 5.37271 28.009 3.70919 25.9634 3.70919ZM14.8358 21.3278C10.7453 21.3278 7.41741 17.9998 7.41741 13.9094C7.41741 9.81895 10.7453 6.49101 14.8358 6.49101C18.9262 6.49101 22.2542 9.81895 22.2542 13.9094C22.2542 17.9998 18.9262 21.3278 14.8358 21.3278ZM12.2131 16.5322C13.6616 17.9807 16.0101 17.9807 17.4586 16.5322C18.9072 15.0836 18.9072 12.7351 17.4586 11.2866C16.0101 9.83808 13.6616 9.83808 12.2131 11.2866C10.7645 12.7351 10.7645 15.0836 12.2131 16.5322Z" fill="white"/>
</svg>
