<svg width="303" height="83" viewBox="0 0 303 83" fill="none" xmlns="http://www.w3.org/2000/svg">
<g filter="url(#filter0_d)">
<path fill-rule="evenodd" clip-rule="evenodd" d="M65.2723 5.0321C60.6645 12.3596 58.0236 23.0259 58.0236 32.3598C57.3653 53.0262 70.5463 68.3634 92.2847 65.6989C114.681 63.0263 121.93 43.0341 117.973 21.6936C116.462 16.4122 114.479 11.2812 112.048 6.36438C107.433 7.69666 104.799 10.3773 103.483 13.6999C93.625 8.3628 83.7194 7.72073 73.8376 13.0258C71.2046 8.3628 67.9053 5.69824 65.2723 5V5.0321Z" fill="#F7931E"/>
<path fill-rule="evenodd" clip-rule="evenodd" d="M4 6.63666C4.66247 16.5876 7.31237 34.493 13.2826 48.4292C18.5824 62.3574 26.54 76.2936 43.1098 72.3084C55.7048 69.6569 66.9748 57.7173 51.73 49.0921C47.0847 46.4326 45.7597 41.7926 51.73 41.1057C57.0298 40.4429 62.3375 39.78 63 29.829C63 24.5181 61.6751 19.2152 59.0092 15.238C60.3581 7.98635 57.7002 1.9886 51.0914 5.97379C39.8214 10.6139 29.8764 13.9601 26.556 8.62526C24.5526 5.97379 21.9027 3.31433 19.9153 0C17.4895 4.69533 16.5618 10.0223 17.2574 15.2619C13.5495 11.4177 9.01588 8.46815 4 6.63666Z" fill="#8CC63F"/>
<path fill-rule="evenodd" clip-rule="evenodd" d="M105 74.9561C126.866 75.6225 152.067 68.9584 156.055 37.6133C157.38 26.9428 156.055 26.9428 164.033 19.6043C165.851 17.6425 167.849 15.8575 170 14.2731C164.695 14.2731 158.736 14.9395 153.431 14.9395C144.153 -1.07028 118.33 2.89603 114.996 22.2699C113.009 29.6084 114.996 37.6133 117.644 46.2766C119.639 54.9479 118.306 62.2864 113.009 68.9584C116.998 68.9584 120.987 66.9592 124.975 64.2856C119.008 69.6248 112.387 72.3145 105.096 74.9561H105Z" fill="#29ABE2"/>
<path fill-rule="evenodd" clip-rule="evenodd" d="M43.2113 21.004C44.5206 20.9491 45.7898 21.4591 46.6922 22.4027C47.5778 23.3911 48.0451 24.6808 47.9966 26.0029C47.986 26.9158 47.8238 27.8207 47.5164 28.6811L41.963 45.3229C41.2287 47.4813 39.8567 49.37 38.026 50.743C36.3748 52.143 34.2908 52.9395 32.1205 53C29.9592 52.9328 27.8841 52.1432 26.231 50.7589C24.3847 49.3972 22.9912 47.5178 22.23 45.3626L16.4845 28.6732C16.1742 27.7998 16.012 26.8813 16.0044 25.9552C15.9496 24.6541 16.4124 23.3838 17.2927 22.4186C18.1721 21.4869 19.4168 20.982 20.7016 21.0358C22.7456 21.0943 24.6944 21.9075 26.167 23.3167C27.8562 24.7608 29.0621 26.682 29.6239 28.8242C30.1573 30.9435 30.8668 32.0031 31.7524 32.0031C32.5526 32.0031 33.3528 30.9382 33.961 28.8242C34.6099 26.6787 35.8821 24.7711 37.6179 23.3405C39.1293 21.9046 41.1209 21.0727 43.2113 21.004ZM34.9772 50.5999C35.6132 50.3297 36.0146 49.6969 35.9855 49.0104C35.9883 48.542 35.8007 48.0921 35.4654 47.7627C35.1382 47.4267 34.6877 47.2369 34.217 47.2369C33.7464 47.2369 33.2959 47.4267 32.9687 47.7627C32.2738 48.4545 32.2738 49.5743 32.9687 50.2661C33.2939 50.6048 33.7458 50.7947 34.217 50.7906C34.4815 50.7838 34.7412 50.7187 34.9772 50.5999ZM40.5787 43.9877C40.6374 45.0875 39.9981 46.1065 38.9783 46.5388L38.9943 46.5706C38.6257 46.7066 38.2351 46.7739 37.842 46.7693C36.7324 46.8287 35.7035 46.194 35.2653 45.1798C35.1045 44.8028 35.0228 44.3972 35.0252 43.9877C34.9731 42.8975 35.6124 41.8911 36.6256 41.4684C37.0013 41.284 37.4149 41.1888 37.834 41.1903C38.9455 41.1321 39.9676 41.7939 40.3626 42.8274C40.5233 43.1926 40.5972 43.5896 40.5787 43.9877Z" fill="black"/>
<path fill-rule="evenodd" clip-rule="evenodd" d="M95.6907 44.7479C97.2019 44.6545 98.7146 44.9009 100.121 45.4693C101.381 46.112 102.115 47.4797 101.965 48.902C102.074 50.4716 101.103 51.9103 99.621 52.3744C97.8064 52.8695 95.9265 53.0728 94.0499 52.9769H83.8922C81.7841 52.9728 79.7649 52.1148 78.2831 50.5935C76.8013 49.0722 75.9796 47.0135 76.0004 44.8747V29.0826C75.99 26.9452 76.8206 24.8919 78.3081 23.3783C79.7955 21.8646 81.8167 21.0158 83.9234 21.02H94.0811C95.9656 20.9249 97.8518 21.1691 99.6523 21.7415C101.107 22.2187 102.067 23.6246 101.996 25.1742C101.996 26.9024 101.382 28.0599 100.152 28.6466C98.7344 29.1659 97.2265 29.3844 95.722 29.2887C94.2398 29.2421 92.7563 29.3083 91.2839 29.4869C90.0337 29.7247 89.4008 30.2797 89.4008 31.12C89.3424 31.9437 89.9169 32.6748 90.7213 32.8007C91.7591 32.9143 92.8034 32.9541 93.8467 32.9196C95.0005 32.9019 96.1178 33.3298 96.9722 34.1167C97.8056 34.8352 98.2859 35.8888 98.2859 36.9985C98.2859 38.1081 97.8056 39.1617 96.9722 39.8802C96.1178 40.6671 95.0005 41.0951 93.8467 41.0773C92.7975 41.0354 91.7473 41.1287 90.7213 41.3548C89.8305 41.6243 89.3851 42.1476 89.3851 42.9403C89.3851 43.7331 90.018 44.2246 91.2682 44.5259C92.7323 44.7401 94.213 44.8144 95.6907 44.7479ZM80.7823 32.6422C81.4141 32.3808 81.8192 31.7485 81.7981 31.0566C81.8066 30.5858 81.6228 30.1324 81.2902 29.804C80.9762 29.4657 80.5371 29.2761 80.0791 29.2808C79.6188 29.2758 79.1772 29.4653 78.8602 29.804C78.1816 30.4941 78.1816 31.6112 78.8602 32.3013C79.1772 32.6399 79.6188 32.8295 80.0791 32.8245C80.3244 32.8206 80.5653 32.7581 80.7823 32.6422ZM86.2519 26.0542C86.3147 27.1585 85.6903 28.1848 84.6891 28.6228H84.7048C84.3397 28.7825 83.9459 28.8635 83.5484 28.8606C82.4671 28.9188 81.4652 28.2855 81.0402 27.2751C80.8855 26.9066 80.8057 26.5102 80.8058 26.1097C80.7453 25.006 81.3689 23.9809 82.3685 23.5411C82.7392 23.3818 83.138 23.3009 83.5405 23.3032C84.6124 23.2516 85.6019 23.885 86.0175 24.8888C86.1722 25.2573 86.2519 25.6537 86.2519 26.0542Z" fill="black"/>
<path fill-rule="evenodd" clip-rule="evenodd" d="M142.601 21.0112C144.66 20.9159 146.701 21.43 148.465 22.4885C150.116 23.5227 151.081 25.3572 150.993 27.2936C151.054 28.8649 150.736 30.4281 150.065 31.8524C149.592 33.0034 148.468 33.7588 147.217 33.7665C144.705 34.116 143.446 36.594 143.441 41.2005C143.451 42.4443 143.545 43.686 143.721 44.9175C143.721 50.297 141.299 52.9868 136.457 52.9868C134.331 53.1202 132.27 52.2343 130.913 50.6042C129.693 48.9517 129.082 46.9323 129.185 44.8857C129.339 43.7349 129.419 42.5757 129.425 41.4149C129.425 36.6496 128.14 34.0895 125.569 33.7348C124.585 33.7348 123.737 32.9961 123.041 31.503C122.331 30.0035 121.975 28.3627 122.001 26.7058C121.975 25.01 122.859 23.4281 124.321 22.552C126.032 21.4747 128.032 20.9375 130.057 21.0112H142.601ZM144.049 28.1037C144.793 28.1664 145.531 27.9288 146.097 27.4445C146.671 26.9702 147.019 26.279 147.057 25.5383C147.122 24.7944 146.883 24.0556 146.393 23.4892C145.921 22.9133 145.234 22.5522 144.489 22.4885C143.74 22.4238 142.998 22.6712 142.441 23.1715C141.857 23.6607 141.494 24.3612 141.433 25.1174C141.372 25.8649 141.62 26.6048 142.121 27.1665C142.601 27.7351 143.302 28.0755 144.049 28.1037ZM148.009 32.186C147.651 32.489 147.19 32.6427 146.721 32.6149C146.25 32.5925 145.811 32.3732 145.513 32.0113C145.201 31.6533 145.043 31.1887 145.073 30.7167C145.121 30.2508 145.344 29.8199 145.697 29.5095C146.051 29.1888 146.523 29.0279 147.001 29.0647C147.469 29.1133 147.901 29.3378 148.209 29.6921C148.527 30.0509 148.672 30.5289 148.609 31.0026C148.592 31.465 148.373 31.8971 148.009 32.186Z" fill="black"/>
<path fill-rule="evenodd" clip-rule="evenodd" d="M171 29.0043H177.679C178.669 28.9835 179.658 29.0387 180.64 29.1693C181.265 29.2715 181.861 29.5102 182.387 29.869C182.911 30.2408 183.347 30.7269 183.662 31.2918C184.013 31.8934 184.192 32.5818 184.18 33.2807C184.187 34.0595 183.967 34.8229 183.546 35.474C183.129 36.1305 182.533 36.6494 181.83 36.9676C182.75 37.2227 183.564 37.7743 184.149 38.5398C184.709 39.2691 185.009 40.1697 185 41.0947C184.998 41.8788 184.815 42.6515 184.466 43.3508C184.14 44.0513 183.642 44.655 183.021 45.1038C182.344 45.5574 181.564 45.8279 180.756 45.8899C180.199 45.945 178.839 45.9843 176.69 46H171V29.0043ZM174.37 31.8264V35.757H176.581C177.896 35.757 178.715 35.757 179.04 35.7019C179.546 35.6573 180.024 35.4446 180.4 35.0966C180.735 34.74 180.913 34.2607 180.895 33.7681C180.912 33.3024 180.761 32.8465 180.47 32.4867C180.133 32.1326 179.678 31.9195 179.194 31.8893C179.09 31.8893 178.923 31.8831 178.694 31.8746C178.194 31.856 177.398 31.8264 176.311 31.8264H174.37ZM174.37 43.1386V38.5948L177.068 38.587C178.071 38.5364 179.077 38.6157 180.06 38.8228C180.485 38.9613 180.855 39.2373 181.111 39.6089C181.366 39.9939 181.496 40.4502 181.482 40.9139C181.542 41.9624 180.804 42.8834 179.782 43.0364C179.012 43.1261 178.237 43.1603 177.463 43.1386H174.37Z" fill="black"/>
<path fill-rule="evenodd" clip-rule="evenodd" d="M206.281 46H210L203.203 29H199.593L193 46H196.633L198.027 42.1392H204.801L206.281 46ZM201.386 32.9866L203.736 39.2771H199.1L201.386 32.9866Z" fill="black"/>
<path fill-rule="evenodd" clip-rule="evenodd" d="M218 29.0043H224.687C225.674 28.9835 226.661 29.0386 227.639 29.1694C228.917 29.365 230.035 30.1479 230.67 31.2919C231.014 31.8956 231.19 32.583 231.18 33.2807C231.189 34.867 230.281 36.3108 228.861 36.9676C229.782 37.2206 230.596 37.7727 231.18 38.5398C231.728 39.2732 232.017 40.1735 231.999 41.0947C232 41.8782 231.82 42.6509 231.474 43.3508C231.145 44.0498 230.648 44.6529 230.028 45.1038C229.35 45.5561 228.571 45.8266 227.763 45.8899C227.199 45.945 225.838 45.9843 223.689 46H218V29.0043ZM221.378 31.8264V35.757H223.589C224.903 35.757 225.722 35.757 226.039 35.7019C226.547 35.6614 227.026 35.4482 227.4 35.0966C227.74 34.7433 227.922 34.2625 227.902 33.7681C227.921 33.3009 227.767 32.8435 227.469 32.4867C227.134 32.1344 226.683 31.9214 226.202 31.8893C226.094 31.8893 225.925 31.883 225.693 31.8744L225.693 31.8744C225.192 31.8558 224.4 31.8264 223.311 31.8264H221.378ZM221.378 43.1386V38.5948L224.076 38.587C225.079 38.5355 226.084 38.6148 227.067 38.8228C227.495 38.9613 227.866 39.2372 228.126 39.6089C228.375 39.9963 228.502 40.4515 228.49 40.9139C228.516 41.4366 228.348 41.9502 228.018 42.3524C227.697 42.7166 227.264 42.958 226.789 43.0364C226.019 43.1263 225.245 43.1605 224.47 43.1386H221.378Z" fill="black"/>
<path fill-rule="evenodd" clip-rule="evenodd" d="M242 29.0043H248.683C249.672 28.9835 250.661 29.0387 251.642 29.1693C252.265 29.2701 252.858 29.509 253.38 29.869C253.908 30.2382 254.347 30.7248 254.663 31.2918C255.013 31.8934 255.192 32.5818 255.18 33.2807C255.189 34.867 254.282 36.3108 252.863 36.9676C253.782 37.2227 254.595 37.7743 255.18 38.5398C255.728 39.2732 256.017 40.1735 255.999 41.0947C255.997 41.8788 255.815 42.6515 255.466 43.3508C255.14 44.0513 254.643 44.655 254.021 45.1038C253.345 45.5574 252.566 45.8279 251.758 45.8899C251.194 45.945 249.842 45.9843 247.686 46H242V29.0043ZM245.376 31.8264V35.757H247.586C248.899 35.757 249.718 35.757 250.035 35.7019C250.544 35.659 251.025 35.4462 251.402 35.0966C251.737 34.74 251.915 34.2607 251.897 33.7681C251.914 33.3024 251.763 32.8465 251.472 32.4867C251.135 32.1326 250.68 31.9195 250.197 31.8893C250.093 31.8893 249.926 31.8831 249.697 31.8746L249.697 31.8746H249.697C249.197 31.856 248.402 31.8264 247.315 31.8264H245.376ZM245.376 43.1386V38.5948L248.073 38.587C249.075 38.5364 250.08 38.6157 251.062 38.8228C251.486 38.9633 251.855 39.2389 252.113 39.6089C252.367 39.9939 252.497 40.4502 252.484 40.9139C252.508 41.4376 252.337 41.9513 252.005 42.3524C251.687 42.7161 251.256 42.9575 250.784 43.0364C250.015 43.1259 249.241 43.16 248.467 43.1386H245.376Z" fill="black"/>
<path fill-rule="evenodd" clip-rule="evenodd" d="M265 46V29H268.445V43.1152H277V46H265Z" fill="black"/>
<path fill-rule="evenodd" clip-rule="evenodd" d="M286 46V29H298.621V31.87H289.463V35.6443H298.03V38.5065H289.463V43.1378H299V46H286Z" fill="black"/>
</g>
<defs>
<filter id="filter0_d" x="0" y="0" width="303" height="83" filterUnits="userSpaceOnUse" color-interpolation-filters="sRGB">
<feFlood flood-opacity="0" result="BackgroundImageFix"/>
<feColorMatrix in="SourceAlpha" type="matrix" values="0 0 0 0 0 0 0 0 0 0 0 0 0 0 0 0 0 0 127 0"/>
<feOffset dy="4"/>
<feGaussianBlur stdDeviation="2"/>
<feColorMatrix type="matrix" values="0 0 0 0 0 0 0 0 0 0 0 0 0 0 0 0 0 0 0.25 0"/>
<feBlend mode="normal" in2="BackgroundImageFix" result="effect1_dropShadow"/>
<feBlend mode="normal" in="SourceGraphic" in2="effect1_dropShadow" result="shape"/>
</filter>
</defs>
</svg>
