<svg width="28" height="26" viewBox="0 0 28 26" fill="none" xmlns="http://www.w3.org/2000/svg">
<path fill-rule="evenodd" clip-rule="evenodd" d="M3 0C1.34315 0 0 1.34315 0 3C0 4.65685 1.34315 6 3 6H19C20.6569 6 22 4.65685 22 3C22 1.34315 20.6569 0 19 0H3ZM0 13C0 11.3431 1.34315 10 3 10H13C14.6569 10 16 11.3431 16 13C16 14.6569 14.6569 16 13 16H3C1.34315 16 0 14.6569 0 13ZM0 23C0 21.3431 1.34315 20 3 20H25C26.6569 20 28 21.3431 28 23C28 24.6569 26.6569 26 25 26H3C1.34315 26 0 24.6569 0 23Z" fill="#000000"/>
</svg>
