<svg width="67" height="57" viewBox="0 0 67 57" fill="none" xmlns="http://www.w3.org/2000/svg">
<path d="M38.2857 0C22.429 0 9.57143 12.7617 9.57143 28.5H0L12.411 40.8183L12.6343 41.2617L25.5238 28.5H15.9524C15.9524 16.245 25.9386 6.33333 38.2857 6.33333C50.6329 6.33333 60.619 16.245 60.619 28.5C60.619 40.755 50.6329 50.6667 38.2857 50.6667C32.1281 50.6667 26.5448 48.165 22.5248 44.1433L17.9943 48.64C23.1948 53.8017 30.3414 57 38.2857 57C54.1424 57 67 44.2383 67 28.5C67 12.7617 54.1424 0 38.2857 0ZM35.0952 15.8333V31.6667L48.7505 39.71L51.0476 35.8783L39.881 29.2917V15.8333H35.0952Z" fill="black"/>
</svg>
