<svg width="30" height="24" viewBox="0 0 30 24" fill="none" xmlns="http://www.w3.org/2000/svg">
<path fill-rule="evenodd" clip-rule="evenodd" d="M10.3429 6.85714C8.45194 6.85714 6.91429 5.31949 6.91429 3.42857C6.91429 1.53766 8.45194 0 10.3429 0C12.2338 0 13.7714 1.53766 13.7714 3.42857C13.7714 5.31949 12.2338 6.85714 10.3429 6.85714ZM3.42857 12C1.53766 12 0 10.4623 0 8.57143C0 6.68051 1.53766 5.14286 3.42857 5.14286C5.31949 5.14286 6.85714 6.68051 6.85714 8.57143C6.85714 10.4623 5.31949 12 3.42857 12ZM15.4857 3.42857C15.4857 5.31949 17.0234 6.85714 18.9143 6.85714C20.8052 6.85714 22.3429 5.31949 22.3429 3.42857C22.3429 1.53766 20.8052 0 18.9143 0C17.0234 0 15.4857 1.53766 15.4857 3.42857ZM25.8286 12C23.9377 12 22.4 10.4623 22.4 8.57143C22.4 6.68051 23.9377 5.14286 25.8286 5.14286C27.7195 5.14286 29.2571 6.68051 29.2571 8.57143C29.2571 10.4623 27.7195 12 25.8286 12ZM14.6286 8.57143C9.42966 8.57143 5.2 12.8011 5.2 18C5.2 24 10.8744 24 14.6286 24C18.3827 24 24.0571 24 24.0571 18C24.0571 12.8011 19.8275 8.57143 14.6286 8.57143ZM17.2 17.1429H15.4857V18.8571H13.7714V17.1429H12.0571V15.4286H13.7714V13.7143H15.4857V15.4286H17.2V17.1429Z" fill="white"/>
</svg>
