<svg width="23" height="24" viewBox="0 0 23 24" fill="none" xmlns="http://www.w3.org/2000/svg">
<path fill-rule="evenodd" clip-rule="evenodd" d="M19.8939 10.0137H20.5889C21.4774 10.0137 22.1948 10.7483 22.1948 11.6358V15.107C22.1948 15.9944 21.4764 16.7217 20.5889 16.7217H19.8939V17.7057C19.8939 19.2819 18.6026 20.5456 17.0265 20.5456H15.6814V22.0497C15.6814 22.9372 14.9619 23.6567 14.0745 23.6567H8.54611C7.65863 23.6567 6.93185 22.9372 6.93185 22.0497V20.545H5.59411C4.01794 20.545 2.75167 19.2819 2.75167 17.7057V16.7212H2.03115C1.14367 16.7212 0.418457 15.9934 0.418457 15.1064V11.6353C0.418457 10.7478 1.14367 10.0137 2.03115 10.0137H2.75167V9.03704C2.75167 7.46087 4.01794 6.18939 5.59411 6.18939H10.2694V3.84678C9.65376 3.49043 9.2442 2.8247 9.2442 2.06087C9.2442 0.922956 10.1729 0 11.3118 0C12.4492 0 13.3732 0.922435 13.3732 2.06087C13.3732 2.8247 12.9595 3.49043 12.3438 3.84678V6.18939H17.0265C18.6021 6.18939 19.8939 7.46087 19.8939 9.03704V10.0137ZM6.93915 9.21026C5.89672 9.21026 5.05098 10.055 5.05098 11.0979C5.05098 12.1409 5.89672 12.9856 6.93915 12.9856C7.98159 12.9856 8.82628 12.1409 8.82628 11.0979C8.82628 10.055 7.98159 9.21026 6.93915 9.21026ZM13.8814 17.9859H8.73915C7.88715 17.9859 7.19637 17.2993 7.19637 16.4463C7.19637 15.5943 7.88715 14.9077 8.73915 14.9077H13.8819C14.7339 14.9077 15.4247 15.5943 15.4247 16.4463C15.4247 17.2983 14.7334 17.9859 13.8814 17.9859ZM13.7938 11.0979C13.7938 12.1409 14.639 12.9856 15.6814 12.9856C16.7244 12.9856 17.5696 12.1409 17.5696 11.0979C17.5696 10.055 16.7244 9.21026 15.6814 9.21026C14.639 9.21026 13.7938 10.055 13.7938 11.0979Z" fill="white"/>
</svg>
