<svg width="96" height="28" viewBox="0 0 96 28" fill="none" xmlns="http://www.w3.org/2000/svg">
<path fill-rule="evenodd" clip-rule="evenodd" d="M19.9393 1.87865C18.4398 4.61426 17.5804 8.59632 17.5804 12.081C17.3662 19.7964 21.6556 25.5223 28.7298 24.5276C36.0182 23.5298 38.3771 16.0661 37.0892 8.09894C36.5978 6.12723 35.9525 4.21167 35.1613 2.37604C33.6593 2.87342 32.8024 3.87418 32.374 5.11464C29.166 3.12211 25.9425 2.88241 22.7267 4.86295C21.8698 3.12211 20.7962 2.12734 19.9393 1.86667V1.87865Z" fill="#F7931E"/>
<path fill-rule="evenodd" clip-rule="evenodd" d="M0 2.47768C0.215584 6.19272 1.07792 12.8774 3.02078 18.0802C4.74545 23.2801 7.33507 28.4829 12.7273 26.9951C16.826 26.0053 20.4935 21.5478 15.5325 18.3277C14.0208 17.3348 13.5896 15.6026 15.5325 15.3461C17.2571 15.0987 18.9844 14.8512 19.2 11.1362C19.2 9.15342 18.7688 7.17366 17.9013 5.68884C18.3403 2.98157 17.4753 0.742411 15.3247 2.23021C11.6571 3.96251 8.42078 5.21178 7.34026 3.2201C6.68831 2.23021 5.82597 1.23735 5.17922 0C4.3898 1.75292 4.08791 3.74167 4.31429 5.69778C3.10763 4.26261 1.63229 3.16144 0 2.47768Z" fill="#8CC63F"/>
<path fill-rule="evenodd" clip-rule="evenodd" d="M32.8672 27.9836C39.9829 28.2324 48.1838 25.7445 49.4818 14.0423C49.9128 10.0586 49.4818 10.0586 52.0779 7.31895C52.6696 6.58654 53.3197 5.92015 54.0197 5.32862C52.2934 5.32862 50.3541 5.57741 48.6278 5.57741C45.6086 -0.399571 37.2052 1.08119 36.12 8.31411C35.4736 11.0538 36.12 14.0423 36.9819 17.2766C37.6309 20.5139 37.1974 23.2536 35.4736 25.7445C36.7716 25.7445 38.0697 24.9981 39.3677 23.9999C37.4258 25.9933 35.2711 26.9974 32.8983 27.9836H32.8672Z" fill="#29ABE2"/>
<path fill-rule="evenodd" clip-rule="evenodd" d="M12.76 7.8415C13.1861 7.82102 13.5991 8.01141 13.8928 8.36369C14.181 8.73266 14.333 9.21415 14.3172 9.70774C14.3138 10.0486 14.261 10.3864 14.161 10.7076L12.3538 16.9205C12.1148 17.7264 11.6683 18.4315 11.0726 18.944C10.5352 19.4667 9.85703 19.7641 9.15078 19.7867C8.44746 19.7616 7.77215 19.4668 7.23419 18.95C6.63336 18.4416 6.17987 17.74 5.93216 16.9354L4.06245 10.7047C3.96149 10.3786 3.90869 10.0357 3.9062 9.68994C3.88838 9.20419 4.03898 8.72994 4.32546 8.36962C4.61165 8.02176 5.01668 7.83327 5.43479 7.85337C6.09998 7.8752 6.73413 8.17881 7.21336 8.7049C7.76307 9.24404 8.15549 9.96129 8.33831 10.761C8.51191 11.5522 8.74281 11.9478 9.03099 11.9478C9.2914 11.9478 9.5518 11.5503 9.74971 10.761C9.9609 9.96004 10.3749 9.24788 10.9398 8.7138C11.4316 8.17772 12.0797 7.86713 12.76 7.8415ZM10.0808 18.8906C10.2878 18.7897 10.4184 18.5535 10.4089 18.2972C10.4098 18.1223 10.3488 17.9544 10.2397 17.8314C10.1332 17.706 9.98659 17.6351 9.83343 17.6351C9.68026 17.6351 9.53366 17.706 9.42719 17.8314C9.20105 18.0897 9.20105 18.5078 9.42719 18.766C9.53302 18.8925 9.68008 18.9634 9.83343 18.9618C9.9195 18.9593 10.004 18.935 10.0808 18.8906ZM11.9037 16.4221C11.9228 16.8327 11.7148 17.2131 11.3829 17.3745L11.3881 17.3864C11.2682 17.4371 11.1411 17.4623 11.0131 17.4605C10.6521 17.4827 10.3172 17.2457 10.1746 16.8671C10.1223 16.7264 10.0957 16.5749 10.0965 16.4221C10.0795 16.0151 10.2876 15.6393 10.6173 15.4815C10.7396 15.4127 10.8742 15.3771 11.0105 15.3777C11.3723 15.356 11.7049 15.603 11.8334 15.9889C11.8857 16.1252 11.9097 16.2735 11.9037 16.4221Z" fill="black"/>
<path fill-rule="evenodd" clip-rule="evenodd" d="M29.838 16.7059C30.3298 16.671 30.8221 16.763 31.2797 16.9752C31.6896 17.2151 31.9287 17.7258 31.8798 18.2568C31.9153 18.8427 31.5992 19.3799 31.117 19.5531C30.5265 19.738 29.9147 19.8139 29.304 19.778H25.9985C25.3125 19.7765 24.6554 19.4562 24.1732 18.8882C23.6909 18.3203 23.4235 17.5517 23.4303 16.7532V10.8575C23.4269 10.0595 23.6972 9.29297 24.1813 8.72788C24.6653 8.16279 25.3231 7.84589 26.0086 7.84748H29.3142C29.9275 7.81196 30.5413 7.90315 31.1272 8.11681C31.6006 8.295 31.913 8.81987 31.89 9.39836C31.89 10.0436 31.69 10.4757 31.2899 10.6947C30.8285 10.8886 30.3378 10.9702 29.8482 10.9345C29.3658 10.917 28.8831 10.9418 28.4039 11.0084C27.9971 11.0972 27.7911 11.3044 27.7911 11.6181C27.7721 11.9256 27.9591 12.1986 28.2208 12.2456C28.5586 12.288 28.8984 12.3029 29.2379 12.29C29.6134 12.2834 29.977 12.4431 30.255 12.7369C30.5262 13.0051 30.6825 13.3985 30.6825 13.8128C30.6825 14.227 30.5262 14.6204 30.255 14.8886C29.977 15.1824 29.6134 15.3422 29.2379 15.3355C28.8965 15.3199 28.5547 15.3547 28.2208 15.4391C27.931 15.5398 27.786 15.7351 27.786 16.0311C27.786 16.327 27.992 16.5105 28.3988 16.623C28.8753 16.703 29.3571 16.7307 29.838 16.7059ZM24.9867 12.1864C25.1923 12.0888 25.3241 11.8528 25.3172 11.5945C25.32 11.4187 25.2602 11.2494 25.1519 11.1268C25.0497 11.0005 24.9069 10.9297 24.7578 10.9315C24.608 10.9296 24.4643 11.0004 24.3611 11.1268C24.1403 11.3845 24.1403 11.8015 24.3611 12.0591C24.4643 12.1856 24.608 12.2563 24.7578 12.2545C24.8376 12.253 24.916 12.2297 24.9867 12.1864ZM26.7669 9.72689C26.7874 10.1392 26.5842 10.5223 26.2584 10.6858H26.2634C26.1446 10.7455 26.0165 10.7757 25.8871 10.7746C25.5353 10.7964 25.2092 10.5599 25.0709 10.1827C25.0206 10.0451 24.9946 9.89714 24.9946 9.74761C24.9749 9.33555 25.1779 8.95286 25.5032 8.78866C25.6238 8.7292 25.7536 8.69899 25.8846 8.69987C26.2334 8.68059 26.5554 8.91706 26.6906 9.29181C26.741 9.42938 26.7669 9.57737 26.7669 9.72689Z" fill="black"/>
<path fill-rule="evenodd" clip-rule="evenodd" d="M45.1039 7.84419C45.7739 7.80859 46.4381 8.00055 47.0121 8.3957C47.5495 8.78182 47.8635 9.4667 47.8348 10.1896C47.8547 10.7762 47.7512 11.3598 47.5328 11.8916C47.3791 12.3213 47.0134 12.6033 46.606 12.6062C45.7886 12.7366 45.379 13.6617 45.3772 15.3815C45.3806 15.8459 45.4111 16.3094 45.4683 16.7692C45.4683 18.7776 44.6804 19.7818 43.1045 19.7818C42.4128 19.8315 41.742 19.5008 41.3004 18.8922C40.9032 18.2753 40.7047 17.5214 40.7381 16.7573C40.788 16.3277 40.8141 15.8949 40.8162 15.4616C40.8162 13.6825 40.3979 12.7267 39.5614 12.5943C39.2412 12.5943 38.9653 12.3186 38.7388 11.7611C38.5076 11.2013 38.3919 10.5887 38.4003 9.97018C38.3918 9.33707 38.6793 8.74649 39.1553 8.41942C39.7121 8.01721 40.3629 7.81665 41.0219 7.84419H45.1039ZM45.5752 10.492C45.8174 10.5155 46.0576 10.4267 46.2417 10.2459C46.4286 10.0689 46.5419 9.81082 46.5541 9.53431C46.5755 9.25656 46.4976 8.98074 46.338 8.76931C46.1844 8.55431 45.9608 8.4195 45.7184 8.3957C45.4748 8.37154 45.2333 8.46392 45.052 8.6507C44.8619 8.83332 44.7438 9.09486 44.7239 9.37715C44.7041 9.65623 44.7849 9.93247 44.9478 10.1422C45.1042 10.3544 45.3321 10.4815 45.5752 10.492ZM46.8637 12.0161C46.7474 12.1292 46.5972 12.1866 46.4445 12.1762C46.2914 12.1679 46.1486 12.086 46.0514 11.9509C45.9501 11.8172 45.8987 11.6438 45.9083 11.4676C45.9239 11.2936 45.9964 11.1328 46.1113 11.0169C46.2266 10.8972 46.3802 10.8371 46.5357 10.8508C46.6881 10.869 46.8287 10.9528 46.9288 11.0851C47.0322 11.219 47.0797 11.3975 47.0589 11.5743C47.0534 11.7469 46.9822 11.9083 46.8637 12.0161Z" fill="black"/>
<path fill-rule="evenodd" clip-rule="evenodd" d="M54.3457 10.8283H56.5192C56.8413 10.8205 57.1634 10.8411 57.4827 10.8899C57.6862 10.928 57.8802 11.0171 58.0513 11.1511C58.2218 11.2899 58.3636 11.4714 58.4664 11.6823C58.5803 11.9069 58.6386 12.1639 58.6349 12.4248C58.6372 12.7156 58.5654 13.0005 58.4286 13.2436C58.2927 13.4887 58.0987 13.6824 57.8701 13.8012C58.1695 13.8965 58.4343 14.1024 58.6248 14.3882C58.8069 14.6604 58.9045 14.9967 58.9016 15.342C58.9009 15.6347 58.8415 15.9232 58.728 16.1843C58.6218 16.4458 58.4598 16.6712 58.2576 16.8388C58.0372 17.0081 57.7836 17.1091 57.5205 17.1322C57.3393 17.1528 56.8966 17.1675 56.1972 17.1733H54.3457V10.8283ZM55.4429 11.8819V13.3493H56.1623C56.59 13.3493 56.8567 13.3493 56.9623 13.3287C57.1271 13.312 57.2827 13.2326 57.4051 13.1027C57.514 12.9696 57.5721 12.7907 57.5661 12.6068C57.5717 12.4329 57.5225 12.2627 57.4277 12.1284C57.3181 11.9962 57.17 11.9166 57.0126 11.9053C56.9787 11.9053 56.9243 11.903 56.8498 11.8998C56.687 11.8929 56.428 11.8819 56.0743 11.8819H55.4429ZM55.4429 16.1051V14.4087L56.3208 14.4058C56.6472 14.3869 56.9744 14.4165 57.2944 14.4938C57.4328 14.5455 57.5529 14.6486 57.6365 14.7873C57.7193 14.9311 57.7615 15.1014 57.7573 15.2745C57.7765 15.666 57.5363 16.0098 57.2038 16.0669C56.9533 16.1004 56.7011 16.1132 56.4491 16.1051H55.4429Z" fill="black"/>
<path fill-rule="evenodd" clip-rule="evenodd" d="M65.8272 17.1733H67.0376L64.8257 10.8267H63.651L61.5054 17.1733H62.6877L63.1413 15.732H65.3456L65.8272 17.1733ZM64.2343 12.315L64.9987 14.6634H63.4902L64.2343 12.315Z" fill="black"/>
<path fill-rule="evenodd" clip-rule="evenodd" d="M69.6406 10.8283H71.8166C72.1378 10.8205 72.459 10.8411 72.7775 10.8899C73.1932 10.9629 73.557 11.2552 73.7636 11.6823C73.8756 11.9077 73.933 12.1643 73.9297 12.4248C73.9326 13.017 73.6371 13.556 73.175 13.8012C73.4747 13.8957 73.7397 14.1018 73.9297 14.3882C74.1081 14.662 74.2021 14.9981 74.1963 15.342C74.1966 15.6345 74.138 15.923 74.0252 16.1843C73.9183 16.4453 73.7565 16.6704 73.5548 16.8388C73.3343 17.0076 73.0808 17.1086 72.8178 17.1322C72.6341 17.1528 72.1914 17.1675 71.4921 17.1733H69.6406V10.8283ZM70.7402 11.8819V13.3493H71.4596C71.8873 13.3493 72.1539 13.3493 72.2571 13.3287C72.4222 13.3136 72.5782 13.234 72.6998 13.1027C72.8107 12.9708 72.8698 12.7913 72.8633 12.6068C72.8695 12.4323 72.8192 12.2616 72.7224 12.1284C72.6134 11.9968 72.4664 11.9173 72.3099 11.9053C72.2749 11.9053 72.2198 11.903 72.1445 11.8998C71.9814 11.8928 71.7235 11.8819 71.3691 11.8819H70.7402ZM70.7402 16.1051V14.4087L71.6181 14.4058C71.9445 14.3866 72.2717 14.4162 72.5916 14.4938C72.7307 14.5456 72.8516 14.6486 72.9363 14.7873C73.0171 14.932 73.0584 15.1019 73.0545 15.2745C73.063 15.4697 73.0082 15.6614 72.901 15.8116C72.7967 15.9475 72.6555 16.0376 72.5011 16.0669C72.2506 16.1005 71.9984 16.1132 71.7464 16.1051H70.7402Z" fill="black"/>
<path fill-rule="evenodd" clip-rule="evenodd" d="M77.4507 10.8283H79.6254C79.9473 10.8205 80.2692 10.8411 80.5884 10.8899C80.7911 10.9275 80.9842 11.0167 81.1541 11.1511C81.3259 11.2889 81.4686 11.4706 81.5714 11.6823C81.6853 11.9069 81.7436 12.1639 81.7399 12.4248C81.7428 13.017 81.4474 13.556 80.9856 13.8012C81.2848 13.8965 81.5495 14.1024 81.7399 14.3882C81.9182 14.662 82.0122 14.9981 82.0064 15.342C82.0057 15.6347 81.9463 15.9232 81.8329 16.1843C81.7267 16.4458 81.5649 16.6712 81.3627 16.8388C81.1425 17.0081 80.889 17.1091 80.6261 17.1322C80.4425 17.1528 80.0026 17.1675 79.3011 17.1733H77.4507V10.8283ZM78.5496 11.8819V13.3493H79.2686C79.696 13.3493 79.9625 13.3493 80.0656 13.3287C80.2312 13.3127 80.3876 13.2332 80.5106 13.1027C80.6195 12.9696 80.6775 12.7907 80.6715 12.6068C80.6772 12.4329 80.628 12.2627 80.5332 12.1284C80.4237 11.9962 80.2757 11.9166 80.1184 11.9053C80.0844 11.9053 80.0301 11.903 79.9556 11.8998C79.793 11.8929 79.5341 11.8819 79.1806 11.8819H78.5496ZM78.5496 16.1051V14.4087L79.427 14.4058C79.7532 14.3869 80.0802 14.4165 80.4 14.4938C80.538 14.5463 80.6579 14.6492 80.7419 14.7873C80.8247 14.9311 80.8669 15.1014 80.8626 15.2745C80.8704 15.47 80.8147 15.6618 80.7067 15.8116C80.6033 15.9473 80.463 16.0375 80.3095 16.0669C80.0591 16.1003 79.8071 16.1131 79.5552 16.1051H78.5496Z" fill="black"/>
<path fill-rule="evenodd" clip-rule="evenodd" d="M84.9351 17.1733V10.8267H86.0563V16.0963H88.8401V17.1733H84.9351Z" fill="black"/>
<path fill-rule="evenodd" clip-rule="evenodd" d="M91.769 17.1733V10.8267H95.8763V11.8981H92.896V13.3072H95.6838V14.3758H92.896V16.1048H95.9996V17.1733H91.769Z" fill="black"/>
</svg>
